<svg width="40" height="40" viewBox="0 0 40 40" fill="none" xmlns="http://www.w3.org/2000/svg">
<rect width="40" height="40" fill="white"/>
<path d="M5 5H34.6232V20.0863C34.6232 23.9549 32.5622 27.5215 29.2113 29.4631L19.8116 35L10.4219 29.4631C7.07095 27.536 5.01438 23.9549 5.01438 20.0863V5H5Z" fill="#FFDD2D"/>
<path fill-rule="evenodd" clip-rule="evenodd" d="M12.9746 12.9414V17.6297C13.6218 16.9107 14.7867 16.4217 16.1098 16.4217H17.5623V21.8723C17.5623 23.3248 17.174 24.5904 16.5844 25.2951H23.0351C22.4455 24.5904 22.0894 23.3248 22.0894 21.8723V16.4217H23.5022C24.8397 16.4217 26.0141 16.9107 26.6469 17.6297V12.9414H12.9746Z" fill="#333333"/>
</svg>
